<svg xmlns="http://www.w3.org/2000/svg" width="86" height="82" viewBox="0 0 86 82">
  <g id="Group_5" data-name="Group 5" transform="translate(-27 -35)">
    <g id="Group_2" data-name="Group 2" transform="translate(295.804 -182)">
      <g id="temp_formal-1944S4419S44_temp" transform="translate(-255.804 217)">
        <path id="Path_47" data-name="Path 47" d="M2,40.326,23.319,61.644l8.133-8.133-3.926-3.926-4.207,4.208L9.849,40.326,23.317,26.858,36.784,40.326l-4.207,4.208L36.5,48.46l8.133-8.133L23.318,19.008Z" transform="translate(-2 -19.004)" fill="#fff"/>
        <path id="Path_48" data-name="Path 48" d="M48.891,27.136l3.929,3.928,4.207-4.207L70.492,40.322,57.028,53.786,43.564,40.322l4.208-4.208-3.929-3.928-8.136,8.136L57.029,61.644,78.351,40.322,57.029,19Z" transform="translate(-18.314 -19)" fill="#fff"/>
      </g>
    </g>
    <text id="HI_Iceland" data-name="HI Iceland" transform="translate(70 110)" fill="#fff" font-size="17" font-family="Kufam-SemiBoldItalic, Kufam" font-weight="600" font-style="italic"><tspan x="-42" y="0">HI Iceland</tspan></text>
  </g>
</svg>
